# xmcd CD database file
#
# Track frame offsets:
#	150
#	15734
#	30650
#	44957
#	60161
#	76662
#	89563
#	102435
#	116064
#	127462
#	149591
#	167393
#	182920
#	205646
#	218784
#	262570
#
# Disc length: 3934 seconds
#
# Revision: 1
# Processed by: cddbd v1.4b41PL1 Copyright (c) Steve Scherf et al.
# Submitted via: CDValet v3.31 - Copyright (c) 1997 Greg Leichner
#
DISCID=e00f5c10
DTITLE=Neil Young with The International Harvesters - 1992-03-?
DTITLE=? - Austin City Limits, Austin City, TX
DYEAR=1900
DGENRE=
TTITLE0=Ready For The Country
TTITLE1=Are There Any More Real Cowboys
TTITLE2=Comes a Time
TTITLE3=Field of Opportuntiy
TTITLE4=Amber Jean
TTITLE5=Roll Another Number
TTITLE6=Heart of Gold
TTITLE7=Let Your Fingers Do The Walking
TTITLE8=Needle And The Damage Done
TTITLE9=Helpless
TTITLE10=California Sunset
TTITLE11=Old Man
TTITLE12=Powderfinger
TTITLE13=Get Back To The Country
TTITLE14=Down By The River
TTITLE15=Don't Spook The Horse
EXTD=
EXTT0=
EXTT1=
EXTT2=
EXTT3=
EXTT4=
EXTT5=
EXTT6=
EXTT7=
EXTT8=
EXTT9=
EXTT10=
EXTT11=
EXTT12=
EXTT13=
EXTT14=
EXTT15=
PLAYORDER=
